{
    "asset" : {
        "generator" : "Khronos glTF Blender I/O v3.2.40",
        "version" : "2.0"
    },
    "scene" : 0,
    "scenes" : [
        {
            "name" : "Scene",
            "nodes" : [
                0
            ]
        }
    ],
    "nodes" : [
        {
            "mesh" : 0,
            "name" : "Cylinder",
            "rotation" : [
                0,
                0,
                -0.7071068286895752,
                0.7071068286895752
            ],
            "scale" : [
                4.036538124084473,
                0.5065381526947021,
                4.036538124084473
            ]
        }
    ],
    "materials" : [
        {
            "doubleSided" : true,
            "name" : "Material.001",
            "pbrMetallicRoughness" : {
                "roughnessFactor" : 0.5
            }
        },
        {
            "doubleSided" : true,
            "name" : "Inside Ring",
            "pbrMetallicRoughness" : {
                "baseColorFactor" : [
                    0.1946178376674652,
                    0.13563336431980133,
                    0.02518685907125473,
                    1
                ],
                "roughnessFactor" : 0.5
            }
        },
        {
            "doubleSided" : true,
            "name" : "Material.002",
            "pbrMetallicRoughness" : {
                "baseColorFactor" : [
                    0.30054378509521484,
                    0.23074008524417877,
                    0.03433981165289879,
                    1
                ],
                "roughnessFactor" : 0.5
            }
        }
    ],
    "meshes" : [
        {
            "name" : "Cylinder",
            "primitives" : [
                {
                    "attributes" : {
                        "POSITION" : 0,
                        "NORMAL" : 1,
                        "TEXCOORD_0" : 2
                    },
                    "indices" : 3,
                    "material" : 0
                },
                {
                    "attributes" : {
                        "POSITION" : 4,
                        "NORMAL" : 5,
                        "TEXCOORD_0" : 6
                    },
                    "indices" : 7,
                    "material" : 1
                },
                {
                    "attributes" : {
                        "POSITION" : 8,
                        "NORMAL" : 9,
                        "TEXCOORD_0" : 10
                    },
                    "indices" : 11,
                    "material" : 2
                }
            ]
        }
    ],
    "accessors" : [
        {
            "bufferView" : 0,
            "componentType" : 5126,
            "count" : 22617,
            "max" : [
                0.9109210968017578,
                0.37000223994255066,
                0.9109210968017578
            ],
            "min" : [
                -0.9109210968017578,
                -0.37000223994255066,
                -0.9109210968017578
            ],
            "type" : "VEC3"
        },
        {
            "bufferView" : 1,
            "componentType" : 5126,
            "count" : 22617,
            "type" : "VEC3"
        },
        {
            "bufferView" : 2,
            "componentType" : 5126,
            "count" : 22617,
            "type" : "VEC2"
        },
        {
            "bufferView" : 3,
            "componentType" : 5123,
            "count" : 44508,
            "type" : "SCALAR"
        },
        {
            "bufferView" : 4,
            "componentType" : 5126,
            "count" : 2266,
            "max" : [
                0.9374601244926453,
                0.4193568527698517,
                0.9374601244926453
            ],
            "min" : [
                -0.9374601244926453,
                -0.4193568527698517,
                -0.9374601244926453
            ],
            "type" : "VEC3"
        },
        {
            "bufferView" : 5,
            "componentType" : 5126,
            "count" : 2266,
            "type" : "VEC3"
        },
        {
            "bufferView" : 6,
            "componentType" : 5126,
            "count" : 2266,
            "type" : "VEC2"
        },
        {
            "bufferView" : 7,
            "componentType" : 5123,
            "count" : 3762,
            "type" : "SCALAR"
        },
        {
            "bufferView" : 8,
            "componentType" : 5126,
            "count" : 1966,
            "max" : [
                1,
                0.4193568527698517,
                1
            ],
            "min" : [
                -1,
                -0.4193568527698517,
                -1
            ],
            "type" : "VEC3"
        },
        {
            "bufferView" : 9,
            "componentType" : 5126,
            "count" : 1966,
            "type" : "VEC3"
        },
        {
            "bufferView" : 10,
            "componentType" : 5126,
            "count" : 1966,
            "type" : "VEC2"
        },
        {
            "bufferView" : 11,
            "componentType" : 5123,
            "count" : 3072,
            "type" : "SCALAR"
        }
    ],
    "bufferViews" : [
        {
            "buffer" : 0,
            "byteLength" : 271404,
            "byteOffset" : 0
        },
        {
            "buffer" : 0,
            "byteLength" : 271404,
            "byteOffset" : 271404
        },
        {
            "buffer" : 0,
            "byteLength" : 180936,
            "byteOffset" : 542808
        },
        {
            "buffer" : 0,
            "byteLength" : 89016,
            "byteOffset" : 723744
        },
        {
            "buffer" : 0,
            "byteLength" : 27192,
            "byteOffset" : 812760
        },
        {
            "buffer" : 0,
            "byteLength" : 27192,
            "byteOffset" : 839952
        },
        {
            "buffer" : 0,
            "byteLength" : 18128,
            "byteOffset" : 867144
        },
        {
            "buffer" : 0,
            "byteLength" : 7524,
            "byteOffset" : 885272
        },
        {
            "buffer" : 0,
            "byteLength" : 23592,
            "byteOffset" : 892796
        },
        {
            "buffer" : 0,
            "byteLength" : 23592,
            "byteOffset" : 916388
        },
        {
            "buffer" : 0,
            "byteLength" : 15728,
            "byteOffset" : 939980
        },
        {
            "buffer" : 0,
            "byteLength" : 6144,
            "byteOffset" : 955708
        }
    ],
    "buffers" : [
        {
            "byteLength" : 961852,
            "uri" : "data:application/octet-stream;base64,"
        }
    ]
}
